<svg width="25" height="28" viewBox="0 0 25 28" fill="none" xmlns="http://www.w3.org/2000/svg">
<path d="M8.64062 5.25195C8.51367 5.25195 8.42578 5.17383 8.40625 5.04688C8.14258 3.62109 8.16211 3.63086 6.69727 3.33789C6.56055 3.30859 6.48242 3.2207 6.48242 3.10352C6.48242 2.97656 6.57031 2.88867 6.70703 2.85938C8.16211 2.58594 8.12305 2.57617 8.40625 1.16016C8.42578 1.0332 8.51367 0.955078 8.64062 0.955078C8.76758 0.955078 8.85547 1.0332 8.88477 1.16016C9.1582 2.56641 9.12891 2.56641 10.584 2.85938C10.7109 2.88867 10.7988 2.9668 10.7988 3.10352C10.7988 3.23047 10.7109 3.30859 10.5742 3.33789C9.12891 3.60156 9.12891 3.61133 8.88477 5.04688C8.85547 5.17383 8.75781 5.25195 8.64062 5.25195ZM15.4375 7.85938C15.2812 7.85938 15.1445 7.74219 15.125 7.57617C14.8223 5.31055 14.7637 5.33008 12.4102 4.86133C12.2441 4.83203 12.127 4.71484 12.127 4.53906C12.127 4.37305 12.2441 4.24609 12.4102 4.22656C14.7637 3.89453 14.832 3.82617 15.125 1.53125C15.1445 1.3457 15.2715 1.22852 15.4375 1.22852C15.6133 1.22852 15.75 1.3457 15.7598 1.54102C16.043 3.79688 16.1504 3.76758 18.4844 4.22656C18.6504 4.25586 18.7676 4.37305 18.7676 4.53906C18.7676 4.72461 18.6504 4.83203 18.4453 4.86133C16.1406 5.23242 16.043 5.30078 15.7598 7.54688C15.75 7.74219 15.6133 7.85938 15.4375 7.85938ZM13.2305 9.38281C13.0938 9.88086 13.0645 10.4277 13.123 11.0137L9.86133 7.74219C9.88086 7.71289 9.89062 7.69336 9.91992 7.67383C10.3594 7.23438 11.0625 7.22461 11.5117 7.67383L13.2305 9.38281ZM8.02539 24.2168L1.375 17.5664C0.925781 17.1172 0.925781 16.4141 1.375 15.9648C1.82422 15.5254 2.52734 15.5254 2.9668 15.9648L7.16602 20.1738C7.23438 19.8809 7.3125 19.5781 7.42969 19.2656L1.39453 13.2305C0.955078 12.791 0.945312 12.0781 1.39453 11.6387C1.83398 11.1895 2.54688 11.1992 2.98633 11.6387L8.55273 17.2051C8.71875 16.9707 8.89453 16.7363 9.08008 16.5215L3.01562 10.457C2.56641 10.0078 2.56641 9.30469 3.01562 8.86523C3.46484 8.41602 4.16797 8.41602 4.60742 8.86523L10.75 14.998C10.9941 14.832 11.2383 14.6953 11.4824 14.5781L6.16992 9.26562C5.7207 8.82617 5.7207 8.11328 6.16992 7.67383C6.60938 7.22461 7.3125 7.22461 7.76172 7.67383L15.0566 14.9688C15.291 15.2031 15.457 15.1836 15.584 15.0566C15.6816 14.9492 15.7109 14.7734 15.5938 14.4805L14.4805 11.4434C14.1582 10.5254 14.1875 9.93945 14.6855 9.5C15.1348 9.11914 15.7012 9.14844 16.0918 9.58789C16.4336 9.97852 16.9805 11.0918 17.4199 11.9512C18.3086 13.6113 19.3047 15.5449 19.7148 17.2832C20.4863 19.9492 19.9785 22.166 17.8691 24.2754C15.0664 27.0781 11.1309 27.3223 8.02539 24.2168ZM21.6191 24.2754C20.4277 25.4766 19.002 26.209 17.5371 26.3945C18.0059 26.082 18.4551 25.7109 18.8848 25.2812C21.2773 22.8984 22 20.1934 21.1016 16.9805C20.7012 15.125 19.6562 13.084 18.8066 11.4727C18.5527 11.0039 18.3086 10.5156 18.0645 10.0469C18.123 9.8418 18.25 9.65625 18.4355 9.5C18.8848 9.11914 19.4512 9.14844 19.832 9.58789C20.1738 9.96875 20.7207 11.082 21.1699 11.9512C22.0586 13.6113 23.0449 15.5449 23.4648 17.2832C24.2363 19.9492 23.7285 22.166 21.6191 24.2754ZM2.98633 27.4492C2.83984 27.4492 2.74219 27.3516 2.71289 27.1953C2.37109 25.291 2.40039 25.2715 0.388672 24.8711C0.232422 24.8418 0.134766 24.7539 0.134766 24.5977C0.134766 24.4316 0.232422 24.3438 0.388672 24.3145C2.40039 23.9336 2.3418 23.8945 2.71289 21.9902C2.74219 21.834 2.83984 21.7363 2.98633 21.7363C3.15234 21.7363 3.24023 21.834 3.26953 21.9902C3.64062 23.8848 3.5918 23.9141 5.60352 24.3145C5.75977 24.3438 5.84766 24.4316 5.84766 24.5977C5.84766 24.7539 5.75977 24.8418 5.59375 24.8711C3.60156 25.2422 3.60156 25.2812 3.26953 27.1953C3.24023 27.3516 3.15234 27.4492 2.98633 27.4492Z" fill="#FF4E4E"/>
</svg>
