<svg width="22" height="22" viewBox="0 0 22 22" fill="none" xmlns="http://www.w3.org/2000/svg">
<path d="M3.35483 0.451172H16.6361C18.7259 0.451172 19.8197 1.55469 19.8197 3.66406V13.8984H10.1224C8.70639 13.8984 8.01303 14.6504 8.01303 16.0664V18.8789C8.01303 20.1777 7.27084 20.9102 6.21616 20.9102C5.10287 20.9102 4.33139 20.1582 4.33139 18.8105V2.38477C4.33139 1.39844 4.07748 0.841797 3.35483 0.451172ZM0.747406 5.31445V3.03906C0.747406 2.42383 1.23569 1.98438 1.83139 1.98438C2.41733 1.98438 2.89584 2.42383 2.89584 3.03906V6.42773H1.88998C1.20639 6.42773 0.747406 5.98828 0.747406 5.31445ZM8.21811 5.63672C8.21811 5.98828 8.48178 6.27148 8.85287 6.27148H15.4837C15.8353 6.27148 16.1087 5.98828 16.1087 5.63672C16.1087 5.29492 15.8353 5.03125 15.4837 5.03125H8.85287C8.48178 5.03125 8.21811 5.29492 8.21811 5.63672ZM8.21811 8.98633C8.21811 9.32812 8.48178 9.60156 8.85287 9.60156H12.3685C12.7298 9.60156 12.9935 9.32812 12.9935 8.98633C12.9935 8.63477 12.7298 8.36133 12.3685 8.36133H8.85287C8.48178 8.36133 8.21811 8.63477 8.21811 8.98633ZM8.46225 21.4473C9.25327 20.6562 9.43881 19.6797 9.43881 18.498V16.4473C9.43881 15.7734 9.8978 15.334 10.5814 15.334H20.7767C21.4603 15.334 21.9193 15.7734 21.9193 16.4473V18.332C21.9193 20.334 20.6302 21.4473 18.6966 21.4473H8.46225Z" fill="#FF4E4E"/>
</svg>
